<svg xmlns="http://www.w3.org/2000/svg" viewBox="0 0 388.75 365.1"><defs><style>.a{isolation:isolate;}.b{fill:#443838;}.c{fill:#e8403d;}.d{fill:#fff;}.e{fill:#404a78;}.f{fill:#f2f5fb;}.g{fill:#7e7a7a;}.h{fill:#a83737;mix-blend-mode:darken;}.i{mix-blend-mode:soft-light;}.j{fill:#231815;}</style></defs><title>Alishan_Train</title><g class="a"><rect class="b" x="72.54" y="265.45" width="307.67" height="27.18"/><rect class="c" x="72.54" y="99.92" width="316.22" height="176.71"/><rect class="d" x="72.54" y="218.45" width="316.22" height="12.78"/><rect class="e" x="72.54" y="141.79" width="316.22" height="70.35"/><path class="f" d="M147.82,189.87c0,7-5,12.61-11.27,12.61H124c-6.23,0-11.27-5.65-11.27-12.61v-25.8c0-7,5-12.61,11.27-12.61h12.57c6.22,0,11.27,5.64,11.27,12.61Z"/><path class="f" d="M192.81,189.87c0,7-5,12.61-11.27,12.61H169c-6.22,0-11.27-5.65-11.27-12.61v-25.8c0-7,5.05-12.61,11.27-12.61h12.57c6.23,0,11.27,5.64,11.27,12.61Z"/><path class="f" d="M237.93,189.87c0,7-5,12.61-11.27,12.61H214.09c-6.22,0-11.27-5.65-11.27-12.61v-25.8c0-7,5.05-12.61,11.27-12.61h12.57c6.23,0,11.27,5.64,11.27,12.61Z"/><path class="f" d="M282.93,189.87c0,7-5.05,12.61-11.27,12.61H259.09c-6.23,0-11.27-5.65-11.27-12.61v-25.8c0-7,5-12.61,11.27-12.61h12.57c6.22,0,11.27,5.64,11.27,12.61Z"/><path class="f" d="M329.73,189.87c0,7-5.05,12.61-11.27,12.61H305.89c-6.23,0-11.27-5.65-11.27-12.61v-25.8c0-7,5-12.61,11.27-12.61h12.57c6.22,0,11.27,5.64,11.27,12.61Z"/><path class="f" d="M374.72,189.87c0,7-5,12.61-11.27,12.61H350.88c-6.22,0-11.27-5.65-11.27-12.61v-25.8c0-7,5.05-12.61,11.27-12.61h12.57c6.23,0,11.27,5.64,11.27,12.61Z"/><polygon class="g" points="56.73 365.1 52.92 364.19 77.74 305.06 81.56 305.97 56.73 365.1"/><polygon class="g" points="48.38 365.1 44.56 364.19 69.39 305.06 73.2 305.97 48.38 365.1"/><polygon class="g" points="194.74 365.1 169.92 305.97 173.73 305.06 198.56 364.19 194.74 365.1"/><polygon class="g" points="203.29 365.1 178.47 305.97 182.28 305.06 207.1 364.19 203.29 365.1"/><rect class="g" x="55.3" y="310.37" width="141.82" height="3.01"/><rect class="g" x="46.94" y="318.07" width="158.73" height="3.01"/><rect class="g" x="39.97" y="329.42" width="173.23" height="3.01"/><rect class="g" x="29.58" y="342.39" width="193.07" height="3.01"/><rect class="b" x="21.73" y="248.62" width="209.14" height="42.61"/><rect class="b" x="4.82" y="270.81" width="242.59" height="9.83"/><rect class="b" x="55.2" y="284.42" width="141.83" height="18.91"/><rect class="b" x="25.96" y="301.56" width="200.69" height="8.2"/><path class="c" d="M246.44,258.71H4.44s-10-139.5,0-181c40-48.56,188-56.51,242,0C259.44,115.67,246.44,258.71,246.44,258.71Z"/><path class="d" d="M126.11,224.42V239.8c-.06-.22,3.41-23.47,25.25-39.91C170.31,185.62,204,179.27,251.58,181l.64-7.72c-51.38-1.88-88.29,5.38-109.7,21.57C117,214.17,125.36,211.8,126.11,224.42Z"/><path class="d" d="M126.11,224.42V239.8c.06-.22-3.41-23.47-25.25-39.91C81.91,185.62,48.2,179.27.64,181L0,173.29c51.38-1.88,88.29,5.38,109.7,21.57C135.25,214.17,126.86,211.8,126.11,224.42Z"/><path class="d" d="M50.85,150.86a18.57,18.57,0,1,1-18.57-18.57A18.57,18.57,0,0,1,50.85,150.86Z"/><path class="d" d="M237.8,150.86a18.57,18.57,0,1,1-18.57-18.57A18.57,18.57,0,0,1,237.8,150.86Z"/><path class="d" d="M230.11,102c0,6.81-6.78,12.33-15.14,12.33H41.07c-8.36,0-15.14-5.52-15.14-12.33V82.48c0-6.81,6.78-10.3,15.14-10.3H215c8.36,0,15.14,3.06,15.14,9.87Z"/><path class="d" d="M29.48,75.72s92.39-50.69,196.9,0Z"/><rect class="c" x="120.83" y="50.71" width="14.37" height="66.06"/><rect class="h" x="95.76" y="122.96" width="64.06" height="13.11"/><rect class="h" x="0.12" y="181.45" width="251.88" height="2.63"/><rect class="h" x="12.32" y="205.17" width="42.66" height="2.96"/><rect class="h" x="12.32" y="213.56" width="42.66" height="2.96"/><rect class="h" x="12.32" y="221.94" width="42.66" height="2.96"/><rect class="h" x="12.32" y="230.33" width="42.66" height="2.96"/><rect class="h" x="197.68" y="205.17" width="42.66" height="2.96"/><rect class="h" x="197.68" y="213.56" width="42.66" height="2.96"/><rect class="h" x="197.68" y="221.94" width="42.66" height="2.96"/><rect class="h" x="197.68" y="230.33" width="42.66" height="2.96"/><g class="i"><path class="j" d="M76.8,162.42h-.22a.46.46,0,0,1-.25,0,2.42,2.42,0,0,0-.58-.27c-.08-.06-.12,0-.12.14h0q-.51-.67-.45-.84l0,0a1.49,1.49,0,0,0-.56-.19,1.21,1.21,0,0,0-.61-.9c-.15,0-.28-.19-.39-.58a7.91,7.91,0,0,1-.28-1.9,3.36,3.36,0,0,1,.19-1.2c0-.11.07-.16.09-.16h.14c0,.26,0,.41,0,.44a.6.6,0,0,0-.09.36h.09l-.09.34c.11,0,.17,0,.17-.06,0-.37,0-.67,0-.92h0v-.14a.35.35,0,0,1,.25-.36l0-.31v-.05l.89-2.34a19.64,19.64,0,0,1,1.31-2.76,2.15,2.15,0,0,1,.42-.67l1-1.76.51-.56s0-.06,0-.14a1.38,1.38,0,0,0,.19-.47s0,0-.11,0l0-.14a.9.9,0,0,0,.42-.55,2.18,2.18,0,0,0,.33-.23,5.89,5.89,0,0,1,.84-.65,6.78,6.78,0,0,0,.58-.41c.13-.11.22-.15.26-.11v0l.75-.36,0,0s.12-.05.19-.16l.11,0v0a2,2,0,0,0,.62-.2h0v0l0,.06h.08a4.07,4.07,0,0,1-.39,1.31,1.22,1.22,0,0,0-.22.5c.11,0,.17,0,.19,0v0c0,.05,0,.17-.1.33s-.08.24-.12.23l0,.14a2.9,2.9,0,0,1-.28,1,3.57,3.57,0,0,1-.25.86,4.65,4.65,0,0,1,1.92.75,10.45,10.45,0,0,1,1.2,1.09,4.68,4.68,0,0,0,.64.73c.85,1.11,1.54,2.09,2.06,2.92a7.94,7.94,0,0,1,.7,1.43,1.32,1.32,0,0,1,.2.86l.08.06a5.58,5.58,0,0,1-.42,1.53c-.07,0-.15.15-.22.45l-.17,0v0a.71.71,0,0,0,.22-.42l0,0a3.58,3.58,0,0,1-.84.73l0-.22h-.08l-.25,0-.26.11-.11,0,.09-.08v-.09l-.28,0-.11,0-.14.09,0-.09-.14,0-.2.11,0,0c0,.09-.15.14-.34.14a1.55,1.55,0,0,1-.33,0c0-.05-.2-.11-.59-.17v-.19a.66.66,0,0,1-.19-.42l.11-.2v-.13c0-.06,0-.09-.11-.09v-.11l.08,0,.09,0c.11,0,.32-.2.64-.7a9.32,9.32,0,0,0-1-2.12h-.06a2.22,2.22,0,0,1-.64.42c0,.11-.3.33-.84.64a4.79,4.79,0,0,1-1.2.67.14.14,0,0,1-.09,0s0,0,0-.05l-.71.24q-.48.15-.51.09v.06l-.09-.06a1.5,1.5,0,0,1-.47.2,3.18,3.18,0,0,1-.56-.34h0q-.11,0-.27.81s-.1.18-.17.55-.15.85-.23,1.46v.2h0l0,.08a.23.23,0,0,1,0,.17l0,.64,0,0a7.68,7.68,0,0,1,.08,1.06,1.48,1.48,0,0,1-.41.64q0,.45-.42.45Zm-3-4.63-.11-.09,0,.26h.09Zm8.11-4.49c.51-.13.76-.21.76-.25V153a18.07,18.07,0,0,1-.84-2,8.83,8.83,0,0,0-.67-1.06l-.56,1.4c-.4.81-.67,1.33-.8,1.53l0,.08a9.82,9.82,0,0,1-.75,1.51h.06A11.1,11.1,0,0,1,81.93,153.3Z"/><path class="j" d="M93.06,161.11a1.92,1.92,0,0,0-.45-.31l-.19,0-.31-.31a1.55,1.55,0,0,1-.67-.31,2.35,2.35,0,0,0-.33-.36c0-.11-.11-.28-.34-.5l-.16-.42a.51.51,0,0,0-.06-.25,1.32,1.32,0,0,1,.22-.53l.39-.67a.69.69,0,0,0,.17-.5,4.62,4.62,0,0,0,.5-.81,3,3,0,0,0,.45-1.09,3.49,3.49,0,0,0,.39-1.06s0,0,0-.13l0-.06,0-.17,0-.25.14-.31c0-.07,0-.12-.06-.14a.5.5,0,0,0,.11-.36c.11,0,.2-.39.25-1.17q0-.36.06-.36l0-.08,0-.09,0-.05a7.67,7.67,0,0,0,.14-1.29l.06-.11,0-.28,0-.16-.06-.51,0-.08L93.25,147l.06-.08a.2.2,0,0,1-.06-.14c0-.43.07-.64.2-.64v-.17q.26-.39.36-.39s.12.15.36.28a.92.92,0,0,0,.76.36c0,.07.19.25.58.53a4.12,4.12,0,0,1,1,1.76,2.86,2.86,0,0,1,.26.94l0,.14s.07,0,.09.12a1,1,0,0,1,.07.3,4,4,0,0,0,0,.64l-.28,1.73a1.85,1.85,0,0,0-.14.64,19.59,19.59,0,0,0-.83,2.43.89.89,0,0,0-.11.36v0a5.76,5.76,0,0,1-.31,1.11V157a18.59,18.59,0,0,1,3.93-.61l.42,0h.19l.09,0,0,0a8.6,8.6,0,0,1,2.28.39,2.68,2.68,0,0,1,1.4,1.17s.11,0,.22.17l0,.39s.06,0,.06.08c-.1.24-.2.36-.31.36h-.17c-.24-.3-.41-.44-.5-.44a4.58,4.58,0,0,1-.86-.09l-.09,0a6.09,6.09,0,0,0-.72,0c-.17,0-.25,0-.25,0l-.34.06v0l-.08,0-.08,0-.73.11-.56.06-.16.06-.06,0c-1,.28-1.76.49-2.2.64a6.83,6.83,0,0,0-2,.7c-.91.39-1.39.65-1.42.78a1.2,1.2,0,0,1-.2.19l0,.2Z"/><path class="j" d="M108.87,161v-.36a11.13,11.13,0,0,0-.59-1.06l0,.09v.11h-.06a1.32,1.32,0,0,1-.19-.5h.11l0-.06-.11.06,0-.23.06,0v0l-.06-.17-.08.05h0v-.16h0c0-.3,0-.45-.11-.45a.51.51,0,0,1,0-.22l-.06-.2,0-.25,0-.22a0,0,0,0,1,0,0l0-.14a.52.52,0,0,1,0-.25l0-.11,0-.31,0-.14.06-.08,0-.11a4.09,4.09,0,0,1,.08-.67l0-.34s0,0,0,0l0-.23,0-.11a21,21,0,0,0,.2-2.12s0-.05,0-.05,0-.57.11-1.31a0,0,0,0,0,0,0l.06-.39a0,0,0,0,0,0,0c0-.19,0-.28.08-.28l0-.11,0-.17a1.17,1.17,0,0,1,0-.3h-.06l.06-1.82,0-.14c0-.59.08-.89.14-.89l0-.3a2.1,2.1,0,0,1,.11-.7,1,1,0,0,0,.28.08c0-.07.09-.2.25-.39a1.19,1.19,0,0,0,.34.09v-.06a3.94,3.94,0,0,1,1.31.5l.83.31a3.68,3.68,0,0,1,1.12.75,1.8,1.8,0,0,1,.47,1.14.33.33,0,0,1,.12.23v.22l0,.14a5.65,5.65,0,0,0,0,.81l-.14.83.06.09c-.06,0-.12.23-.17.64a0,0,0,0,0,0,0l0,.14-.17,1.7s0,0,0,0a7.22,7.22,0,0,0,0,.81l-.11.48a.26.26,0,0,1,0,.14c0,.68-.07,1-.14,1l0,.08a6.16,6.16,0,0,1-.41,1.93q0,.16-.48.72,0,.09-.42.39s-.08.1-.25.25v0l0,0s-.08.06-.13.17v.17h-.06l-.06,0c-.13,0-.19.1-.19.19s0,.12-.09.37h0l-.06,0,0,.39h-.14a.76.76,0,0,1-.08-.25,1.07,1.07,0,0,1-.36.16,3.52,3.52,0,0,1-.42.48,1,1,0,0,0-.36.05Zm-.59-1.47a.16.16,0,0,1,0-.11h0v0l0,.11h0Z"/><path class="j" d="M117.09,160.66v0h0a.46.46,0,0,0,.21-.12,1.61,1.61,0,0,1,.29-.21,10.82,10.82,0,0,0,.87-.89l.05,0a1.33,1.33,0,0,0,.28-.19l1.06-.7,1.14-.7c.3-.16.57-.32.8-.47a1.14,1.14,0,0,1,.37-.2s.22-.18.65-.39c0-.14.16-.25.39-.3l.41-.45.17-.22a.6.6,0,0,0,0-.2.22.22,0,0,0-.14-.22c0,.09,0,.14-.08.14l-.14,0,0,0-.08-.05s0,.05-.11.05l-.22-.05v-.06a.51.51,0,0,0,.22,0v0l-.11,0c-.13,0-.21,0-.23.09l-.16-.06v-.05l.19,0v-.08h-.14v0h-.19l0,0a1.24,1.24,0,0,0-.31,0,.77.77,0,0,0-.33.05l-.14,0,.17-.12h-.09c-.16,0-.26,0-.28.06l0,.06-.44-.06h0a3,3,0,0,1-.73-.14c0-.07.13-.11.34-.11v0l-.09,0-.41.11a.53.53,0,0,1-.25-.12l-.12-.1,0,0h-.2a2.9,2.9,0,0,1-.92-.61,7.23,7.23,0,0,0-.72-.92,1.07,1.07,0,0,0-.31-.53,3.8,3.8,0,0,1-.42-1.45l0-.05s0-.06,0-.06a8.32,8.32,0,0,0,.11-.84.59.59,0,0,0,.17-.5v-.11a6.22,6.22,0,0,1,1.12-1.76l.69-.78a4,4,0,0,0,.67-.61,9.51,9.51,0,0,1,1.2-.7s.18-.11.53-.22a8.11,8.11,0,0,1,2-.36l.67-.06v0a5.62,5.62,0,0,1,1.47.11l.31.17h.08s.07.12.2.25,0,.15.17.39a2,2,0,0,0,.11.5,5.54,5.54,0,0,1-.06.67s-.12.08-.19.31l-.17.14-.47-.14a.77.77,0,0,0-.34-.06.81.81,0,0,0-.25,0,11.38,11.38,0,0,0-1.31.14v-.06a4.83,4.83,0,0,0-1.67.56,1.79,1.79,0,0,0-.73.39,10.94,10.94,0,0,0-1.64,1.39,1.28,1.28,0,0,0-.48.62c.17.07.25.13.25.16h.12a12.75,12.75,0,0,0,2.39.4s0,0,0,.05a2.54,2.54,0,0,0,.7.08v.09c.09,0,.28.06.56.14a5.23,5.23,0,0,1,3,2.59,6.64,6.64,0,0,1,.44,1.17,5,5,0,0,1,.25,1.56,4.84,4.84,0,0,1-.08.92c0,.11-.1.17-.14.17V158a2.58,2.58,0,0,1-.7,1.14l-.64.65a1.18,1.18,0,0,0-.33.3l-.17.09a1.63,1.63,0,0,0-.42.27,4.42,4.42,0,0,0-.75.37,4.4,4.4,0,0,1-1.2.47,2.08,2.08,0,0,1-.89.36l-.06,0a6,6,0,0,0-.58.25l-.25-.11-.14,0v0a.25.25,0,0,0,.19-.2.23.23,0,0,0-.11,0,3.09,3.09,0,0,0-.53.11.81.81,0,0,0-.25,0,0,0,0,0,1,0,0,1.27,1.27,0,0,0-.56.23l-.05,0,0-.06v-.22l-.28-.06v0l.08-.08h-.22v0h-.45a.23.23,0,0,0-.14-.08h-.14l-.05-.06a2.38,2.38,0,0,1-.62.09.65.65,0,0,1-.25,0A.85.85,0,0,1,117.09,160.66Z"/><path class="j" d="M140.45,162c0-.19-.07-.28-.11-.28s-.05,0-.05.11h-.06c-.11,0-.29-.69-.56-2.06l0-.06a1.17,1.17,0,0,1-.14-.61c.08,0,.11-.06.11-.17l0,0,0,0a4,4,0,0,0-.12-.95l0,0,0-1-.05-.17s.05,0,.05,0l0-1.09q0-.09,0-.09,0-.33,0-1.08a.1.1,0,0,0-.11.11h0c0-.11,0-.17-.06-.17a.41.41,0,0,1-.36.17s-.08.08-.23.14l-.08,0-.36.11a0,0,0,0,0,0,0c0,.12-.46.23-1.37.34a8.92,8.92,0,0,1-1.08.11l-.06,0c-.83.13-1.25.27-1.25.42a.64.64,0,0,1-.14.33l0,.06c-.13.52-.27,1-.39,1.34a4.88,4.88,0,0,0-.56.81s-.13.11-.28.33c0,0-.12.07-.24.2l-.32.33c-.06,0-.19.14-.42.42h-.08a.1.1,0,0,0-.11-.11.4.4,0,0,0-.37.19l-.25.11s0,0,0,0l-.06,0h-.2a.77.77,0,0,0-.13-.3l.08-.14v0l-.14,0c0,.06,0,.09-.11.09s0-.09-.11-.09-.1-.06-.17-.19h-.25a.9.9,0,0,1-.48-.48c-.05,0-.13-.16-.25-.5,0,0,.1-.06.17-.19l-.11-.56c.13,0,.22-.21.28-.64a13,13,0,0,0,.56-2.15s0-.05,0-.05a22.45,22.45,0,0,0,.36-3.15,12.12,12.12,0,0,0-.33-2.74.83.83,0,0,1-.09-.44h.06l-.06-.23c.11,0,.17-.05.17-.16h0l.22.08c.22-.06.33-.11.33-.17a3.49,3.49,0,0,1,1,.31,1,1,0,0,0,.64.31s.19.14.58.27l.17.17a3.27,3.27,0,0,1,1.48,2.4l0,.5c0,.09,0,.14,0,.14l0,.06a5.22,5.22,0,0,1,0,.72.16.16,0,0,1,0,.11c0,.13,0,.2-.06.2l0,.08,0,.25a0,0,0,0,1,0,0,14.57,14.57,0,0,1,3.9-.86c.1,0,.16-.08.2-.23.07,0,.11,0,.11-.14l.25,0c0-.13,0-.19.08-.19s.08.19.17.19l0,0,0-.34a.81.81,0,0,1,0-.25c0-.11,0-.53,0-1.25a.83.83,0,0,0-.17-.59,3.7,3.7,0,0,0,0-.64l.09,0-.06-.14a.87.87,0,0,1,.09-.36l0-.08,0-.37,0-.11,0-.14,0,0a2.93,2.93,0,0,1,.3-1.22,1.79,1.79,0,0,0,.5-.75.9.9,0,0,0,.28.13h.39l.25.12c.17.15.39.36.65.64.13,0,.49.41,1.08,1.22a3.19,3.19,0,0,1,.31.84c.06,0,.13.2.22.59a8.46,8.46,0,0,1,.28,1.84h0l0,.05a6.29,6.29,0,0,0,0,.81l-.06.5a0,0,0,0,0,0,0,22.55,22.55,0,0,1-.19,2.45l0,0a13.26,13.26,0,0,1-.48,2.54,2.18,2.18,0,0,1-.31.67,2.29,2.29,0,0,1-.41.83,7.56,7.56,0,0,0-.34.78h-.05v0h-.09a2.45,2.45,0,0,0-.72,1.28l-.23.5c0,.06-.05.11-.16.14s0-.14-.06-.14l-.22.48s-.08.08-.11.25Zm-.66-6.05v-.59a2.11,2.11,0,0,1-.06-.36h0l0,.39,0,.08,0,.2,0,.08a4.27,4.27,0,0,0,0,.59h0Q139.79,156.34,139.79,156Zm0,.61a0,0,0,0,1,0,0l0-.11-.06.06,0,0,0,.08.06,0h0Z"/><path class="j" d="M149.63,162.42h-.23a.46.46,0,0,1-.25,0,2.17,2.17,0,0,0-.58-.27c-.08-.06-.11,0-.11.14h0q-.51-.67-.45-.84l0,0a1.49,1.49,0,0,0-.56-.19,1.18,1.18,0,0,0-.61-.9c-.15,0-.28-.19-.39-.58a7.91,7.91,0,0,1-.28-1.9,3.36,3.36,0,0,1,.19-1.2c0-.11.07-.16.09-.16h.14c0,.26,0,.41,0,.44a.6.6,0,0,0-.08.36h.08l-.08.34c.11,0,.16,0,.16-.06,0-.37,0-.67,0-.92h0v-.14a.35.35,0,0,1,.25-.36l.05-.31v-.05l.9-2.34a18.59,18.59,0,0,1,1.31-2.76,2.15,2.15,0,0,1,.42-.67l1-1.76.5-.56s0-.06,0-.14a1.5,1.5,0,0,0,.2-.47s0,0-.12,0l0-.14a.9.9,0,0,0,.42-.55,2.55,2.55,0,0,0,.34-.23,5.29,5.29,0,0,1,.83-.65c.3-.2.49-.33.59-.41s.21-.15.25-.11v0l.75-.36,0,0c.05,0,.12-.05.19-.16l.11,0v0a2,2,0,0,0,.62-.2h0v0l0,.06h.08a4.07,4.07,0,0,1-.39,1.31,1.22,1.22,0,0,0-.22.5c.11,0,.17,0,.19,0v0c0,.05-.05.17-.09.33s-.09.24-.13.23l0,.14a2.7,2.7,0,0,1-.28,1,3.14,3.14,0,0,1-.25.86,4.59,4.59,0,0,1,1.92.75,9.67,9.67,0,0,1,1.2,1.09,5.42,5.42,0,0,0,.64.73c.86,1.11,1.55,2.09,2.07,2.92a8.28,8.28,0,0,1,.69,1.43,1.32,1.32,0,0,1,.2.86l.08.06a5.58,5.58,0,0,1-.42,1.53c-.07,0-.15.15-.22.45l-.17,0v0a.74.74,0,0,0,.23-.42l-.06,0a3.58,3.58,0,0,1-.84.73l0-.22h-.08l-.25,0-.25.11-.11,0,.08-.08v-.09l-.28,0-.11,0-.14.09,0-.09-.14,0-.19.11-.06,0c0,.09-.15.14-.33.14a1.65,1.65,0,0,1-.34,0c0-.05-.19-.11-.58-.17v-.19a.67.67,0,0,1-.2-.42l.11-.2v-.13c0-.06,0-.09-.11-.09v-.11l.09,0,.08,0c.11,0,.32-.2.64-.7a8.84,8.84,0,0,0-1-2.12h-.06a2.22,2.22,0,0,1-.64.42c0,.11-.3.33-.83.64a5.18,5.18,0,0,1-1.2.67.17.17,0,0,1-.1,0,.05.05,0,0,1,0-.05l-.72.24q-.48.15-.51.09v.06l-.08-.06a1.52,1.52,0,0,1-.48.2,3.18,3.18,0,0,1-.56-.34h0c-.08,0-.17.27-.28.81,0,0-.09.18-.17.55s-.15.85-.22,1.46v.2h-.06l.06.08a.24.24,0,0,1-.06.17l.06.64-.06,0a6.41,6.41,0,0,1,.09,1.06c0,.11-.14.33-.42.64q0,.45-.42.45Zm-3-4.63-.11-.09,0,.26h.08Zm8.12-4.49c.5-.13.75-.21.75-.25V153a20.37,20.37,0,0,1-.84-2A8.83,8.83,0,0,0,154,150l-.55,1.4c-.41.81-.68,1.33-.81,1.53l0,.08a10.61,10.61,0,0,1-.76,1.51H152A11,11,0,0,1,154.76,153.3Z"/><path class="j" d="M166.27,160.27l-.28,0a1.23,1.23,0,0,1-.78-.28l-.11,0c0-.08,0-.11-.14-.11a.25.25,0,0,1-.17.08c0-.08-.18-.24-.55-.5,0-.13-.13-.29-.37-.48a3.64,3.64,0,0,0-.39-.64l-.11-.36v-.34c.26-1.07.51-2.37.75-3.87l0-.06,0-.11v-.11c0-.15.07-.62.2-1.42l.17-1a1,1,0,0,1-.09-.31,1.6,1.6,0,0,1,.23-.86l-.06-.12,0-.3,0-.09q.17-1.95.39-1.95l.06-.05a2.49,2.49,0,0,0,1,.39l.22.14h0a.22.22,0,0,1,.06-.17c-.08,0-.11-.07-.11-.17h.25a1.92,1.92,0,0,0,.92.36c.2.1.51.22.92.37l1.53,1.25.89.92a9.79,9.79,0,0,1,1.26,1.65,2.4,2.4,0,0,1,.5.75s.14.17.31.5a2.73,2.73,0,0,1,.39.59h0l1.17-3a6.16,6.16,0,0,0,.31-1.31h.06l-.06,0a1.54,1.54,0,0,0,.25-.67l-.05-.11a4.5,4.5,0,0,1,.16-.9,1.7,1.7,0,0,1,.12-.39s0,0,.05,0,.08-.59.25-1.48l0-.17c.06-.15.11-.22.14-.22l.11.05v-.14l.2,0,.2-.08c1,.24,1.53.45,1.53.64a2.64,2.64,0,0,1,.81,1,7.3,7.3,0,0,1,.44,2.93,14.54,14.54,0,0,1-.39,1.76,22.3,22.3,0,0,1-1.14,4l-.53,1.25-.36.95s-.12.09-.25.28a.92.92,0,0,0,.08.47,1.44,1.44,0,0,1-.31,1l0,.14c0,.09-.06.14-.08.14a4,4,0,0,0-.64,0l-.2,0a1.41,1.41,0,0,0-.44.17,3.08,3.08,0,0,0-.84-.19s-.13-.11-.39-.23a.7.7,0,0,0-.67-.3s-.06-.07-.2-.09a3.56,3.56,0,0,0-.13-.39h-.14c-.21,0-.31-.1-.31-.3a4.71,4.71,0,0,0-.2-.84l0,0a.47.47,0,0,1-.22-.39.32.32,0,0,0,.11-.19,20.13,20.13,0,0,0-2.62-4.74c-.13-.19-.25-.28-.36-.28l0,0a0,0,0,0,1,0,0l0,0,0,.08,0,0-.28,2.32q-.19,1.5-.45,2.73l-.2,1.11a.21.21,0,0,0-.13.09s0,0,.05,0a2.12,2.12,0,0,1-.17.67c-.11.52-.31.78-.61.78v0a1,1,0,0,0-.47.09Z"/></g></g></svg>